<svg width="32.000000" height="31.000000" viewBox="0 0 32 31" fill="none" xmlns="http://www.w3.org/2000/svg" xmlns:xlink="http://www.w3.org/1999/xlink">
	<desc>
			Created with Pixso.
	</desc>
	<defs/>
	<path id="Vector" d="M15.5 9C12.93 9 10.85 6.98 10.85 4.5C10.85 2.01 12.93 0 15.5 0C18.06 0 20.14 2.01 20.14 4.5C20.14 6.98 18.06 9 15.5 9ZM15.5 30L15.5 9M4.64 15L0 15C0 18.97 1.63 22.79 4.54 25.6C7.44 28.41 11.38 30 15.5 30C19.61 30 23.55 28.41 26.46 25.6C29.36 22.79 31 18.97 31 15L26.35 15" stroke="#FFFFFF" stroke-opacity="1.000000" stroke-width="1.800000" stroke-linejoin="round" stroke-linecap="round"/>
</svg>
