<svg width="33.000000" height="29.000000" viewBox="0 0 33 29" fill="none" xmlns="http://www.w3.org/2000/svg" xmlns:xlink="http://www.w3.org/1999/xlink">
	<desc>
			Created with Pixso.
	</desc>
	<defs/>
	<path id="book" d="M16 29C16 27.71 15.49 26.48 14.59 25.58C13.69 24.67 12.47 24.16 11.2 24.16L0 24.16L0 0L9.6 0C11.29 0 12.92 0.67 14.12 1.88C15.32 3.09 16 4.73 16 6.44L16 29M16 29C16 27.71 16.5 26.48 17.4 25.58C18.3 24.67 19.52 24.16 20.79 24.16L32 24.16L32 0L22.39 0C20.7 0 19.07 0.67 17.87 1.88C16.67 3.09 16 4.73 16 6.44" stroke="#FFFFFF" stroke-opacity="1.000000" stroke-width="1.800000" stroke-linejoin="round"/>
</svg>
