<svg width="32.000000" height="32.000000" viewBox="0 0 32 32" fill="none" xmlns="http://www.w3.org/2000/svg" xmlns:xlink="http://www.w3.org/1999/xlink">
	
	<defs/>
	<path id="cup" d="M23.61 10.85L23.61 24.8C23.61 26.44 22.99 28.02 21.88 29.18C20.78 30.34 19.28 31 17.71 31L5.9 31C4.33 31 2.83 30.34 1.72 29.18C0.62 28.02 0 26.44 0 24.8L0 10.85L23.61 10.85L25.09 10.85C26.66 10.85 28.16 11.5 29.27 12.66C30.37 13.82 31 15.4 31 17.04C31 18.69 30.37 20.27 29.27 21.43C28.16 22.59 26.66 23.25 25.09 23.25L23.61 23.25M5.9 0L5.9 4.64M11.8 0L11.8 4.64M17.71 0L17.71 4.64" stroke="#FFFFFF" stroke-opacity="1.000000" stroke-width="1.800000" stroke-linejoin="round"/>
</svg>
