<svg width="32.000000" height="31.000000" viewBox="0 0 32 31" fill="none" xmlns="http://www.w3.org/2000/svg" xmlns:xlink="http://www.w3.org/1999/xlink">
	<desc>
			Created with Pixso.
	</desc>
	<defs/>
	<path id="settings" d="M15.5 19.09C13.16 19.09 11.27 17.25 11.27 15C11.27 12.74 13.16 10.9 15.5 10.9C17.83 10.9 19.72 12.74 19.72 15C19.72 17.25 17.83 19.09 15.5 19.09ZM25.76 20.4C25.84 20.84 26.06 21.25 26.39 21.57L26.47 21.65C26.73 21.9 26.94 22.2 27.08 22.53C27.23 22.87 27.3 23.22 27.3 23.58C27.3 23.94 27.23 24.29 27.08 24.62C26.94 24.95 26.73 25.26 26.47 25.51C26.21 25.76 25.9 25.96 25.56 26.1C25.22 26.24 24.85 26.31 24.48 26.31C24.11 26.31 23.74 26.24 23.4 26.1C23.06 25.96 22.75 25.76 22.48 25.51L22.4 25.43C22.07 25.11 21.65 24.9 21.19 24.82C20.73 24.74 20.26 24.8 19.83 24.98C19.42 25.15 19.06 25.44 18.81 25.8C18.56 26.17 18.43 26.6 18.43 27.04L18.43 27.27C18.43 27.99 18.13 28.68 17.6 29.2C17.07 29.71 16.36 30 15.61 30C14.86 30 14.14 29.71 13.62 29.2C13.09 28.68 12.79 27.99 12.79 27.27L12.79 27.14C12.78 26.69 12.63 26.26 12.36 25.89C12.08 25.52 11.71 25.24 11.27 25.09C10.84 24.9 10.37 24.85 9.91 24.93C9.46 25.01 9.04 25.22 8.7 25.54L8.62 25.62C8.36 25.87 8.05 26.07 7.7 26.21C7.36 26.35 7 26.42 6.62 26.42C6.25 26.42 5.89 26.35 5.55 26.21C5.2 26.07 4.89 25.87 4.63 25.62C4.37 25.36 4.16 25.06 4.02 24.73C3.88 24.4 3.8 24.05 3.8 23.69C3.8 23.33 3.88 22.98 4.02 22.64C4.16 22.31 4.37 22.01 4.63 21.76L4.72 21.68C5.04 21.36 5.26 20.95 5.34 20.51C5.42 20.06 5.37 19.61 5.18 19.2C5 18.79 4.71 18.45 4.33 18.21C3.95 17.96 3.51 17.83 3.05 17.83L2.81 17.83C2.07 17.83 1.35 17.54 0.82 17.03C0.29 16.52 0 15.83 0 15.1C0 14.38 0.29 13.69 0.82 13.18C1.35 12.66 2.07 12.38 2.81 12.38L2.94 12.38C3.41 12.37 3.86 12.22 4.24 11.96C4.62 11.7 4.91 11.33 5.07 10.9C5.26 10.49 5.31 10.04 5.23 9.59C5.15 9.15 4.93 8.74 4.6 8.42L4.52 8.34C4.26 8.09 4.05 7.79 3.91 7.46C3.76 7.12 3.69 6.77 3.69 6.41C3.69 6.05 3.76 5.7 3.91 5.37C4.05 5.04 4.26 4.73 4.52 4.48C4.78 4.23 5.09 4.03 5.43 3.89C5.77 3.75 6.14 3.68 6.51 3.68C6.88 3.68 7.25 3.75 7.59 3.89C7.93 4.03 8.24 4.23 8.51 4.48L8.59 4.56C8.92 4.88 9.34 5.09 9.8 5.17C10.26 5.25 10.73 5.19 11.16 5.01L11.27 5.01C11.68 4.84 12.04 4.55 12.29 4.19C12.54 3.82 12.68 3.39 12.68 2.95L12.68 2.72C12.68 2 12.97 1.31 13.5 0.79C14.03 0.28 14.75 0 15.5 0C16.24 0 16.96 0.28 17.49 0.79C18.02 1.31 18.31 2 18.31 2.72L18.31 2.85C18.31 3.28 18.45 3.71 18.7 4.08C18.95 4.44 19.31 4.73 19.72 4.9C20.15 5.09 20.62 5.14 21.08 5.06C21.53 4.98 21.96 4.77 22.29 4.45L22.37 4.37C22.63 4.12 22.94 3.92 23.29 3.78C23.63 3.64 24 3.57 24.37 3.57C24.74 3.57 25.1 3.64 25.44 3.78C25.79 3.92 26.1 4.12 26.36 4.37C26.62 4.63 26.83 4.93 26.97 5.26C27.11 5.59 27.19 5.94 27.19 6.3C27.19 6.66 27.11 7.02 26.97 7.35C26.83 7.68 26.62 7.98 26.36 8.23L26.27 8.31C25.95 8.63 25.73 9.04 25.65 9.48C25.57 9.93 25.62 10.38 25.81 10.8L25.81 10.9C25.99 11.31 26.28 11.65 26.66 11.89C27.04 12.14 27.48 12.27 27.94 12.27L28.18 12.27C28.92 12.27 29.64 12.56 30.17 13.07C30.7 13.58 31 14.27 31 15C31 15.72 30.7 16.41 30.17 16.92C29.64 17.43 28.92 17.72 28.18 17.72L28.05 17.72C27.6 17.72 27.15 17.85 26.78 18.1C26.4 18.34 26.1 18.68 25.92 19.09C25.73 19.5 25.68 19.95 25.76 20.4Z" stroke="#FFFFFF" stroke-opacity="1.000000" stroke-width="1.800000" stroke-linejoin="round"/>
</svg>
